<svg xmlns="http://www.w3.org/2000/svg" viewBox="0 0 480 360" width="480" height="360">
  <defs>
    <filter id="glow" x="-60%" y="-60%" width="220%" height="220%">
      <feGaussianBlur stdDeviation="2.4" result="b"/>
      <feMerge><feMergeNode in="b"/><feMergeNode in="SourceGraphic"/></feMerge>
    </filter>
    <linearGradient id="cyan" x1="0" y1="0" x2="0" y2="1"><stop stop-color="#e9fdff"/><stop offset=".34" stop-color="#73edff"/><stop offset="1" stop-color="#3659be"/></linearGradient>
    <linearGradient id="mint" x1="0" y1="0" x2="0" y2="1"><stop stop-color="#effff9"/><stop offset=".36" stop-color="#6cf0c8"/><stop offset="1" stop-color="#285c62"/></linearGradient>
    <linearGradient id="blue" x1="0" y1="0" x2="0" y2="1"><stop stop-color="#f0fbff"/><stop offset=".32" stop-color="#63bfff"/><stop offset="1" stop-color="#2945a6"/></linearGradient>
    <linearGradient id="violet" x1="0" y1="0" x2="0" y2="1"><stop stop-color="#efe8ff"/><stop offset=".32" stop-color="#b36cff"/><stop offset="1" stop-color="#3b285f"/></linearGradient>
    <linearGradient id="gold" x1="0" y1="0" x2="0" y2="1"><stop stop-color="#fffce3"/><stop offset=".32" stop-color="#ffd85c"/><stop offset="1" stop-color="#a75b25"/></linearGradient>
    <linearGradient id="red" x1="0" y1="0" x2="0" y2="1"><stop stop-color="#fff0e8"/><stop offset=".3" stop-color="#ff7b4e"/><stop offset="1" stop-color="#791f39"/></linearGradient>
    <linearGradient id="pink" x1="0" y1="0" x2="0" y2="1"><stop stop-color="#fff0ff"/><stop offset=".32" stop-color="#ef75e8"/><stop offset="1" stop-color="#67336f"/></linearGradient>
    <linearGradient id="green" x1="0" y1="0" x2="0" y2="1"><stop stop-color="#eafff7"/><stop offset=".34" stop-color="#63e8a8"/><stop offset="1" stop-color="#254d4d"/></linearGradient>
    <linearGradient id="crimson" x1="0" y1="0" x2="0" y2="1"><stop stop-color="#ffe9f0"/><stop offset=".3" stop-color="#ff547e"/><stop offset="1" stop-color="#421b43"/></linearGradient>
    <linearGradient id="astral" x1="0" y1="0" x2="0" y2="1"><stop stop-color="#fff8da"/><stop offset=".22" stop-color="#91baff"/><stop offset=".62" stop-color="#6759ca"/><stop offset="1" stop-color="#24295c"/></linearGradient>
    <linearGradient id="zenith" x1="0" y1="0" x2="0" y2="1"><stop stop-color="#ffffff"/><stop offset=".27" stop-color="#8eeeff"/><stop offset=".58" stop-color="#9780ff"/><stop offset="1" stop-color="#30466f"/></linearGradient>
  </defs>

  <!-- Vanguard -->
  <g transform="translate(60 58)" stroke-linejoin="round">
    <g filter="url(#glow)" opacity=".85" fill="#4edfff">
      <path d="M-18 28 -13 48 -7 29z"/><path d="M18 28 13 48 7 29z"/>
    </g>
    <path d="M0-46 11-19 34 12 18 9 10 32 0 22 -10 32 -18 9 -34 12 -11-19z" fill="url(#cyan)" stroke="#cfffff" stroke-width="1.8"/>
    <path d="M-34 12 -18-10 -11 8 -18 25zM34 12 18-10 11 8 18 25z" fill="#416fda" stroke="#77eaff"/>
    <path d="M-25-3 -18-15 -13-3 -17 15 -27 14zM25-3 18-15 13-3 17 15 27 14z" fill="#172d5a" stroke="#63dfff"/>
    <ellipse cy="-10" rx="6" ry="13" fill="#35dfff" stroke="#fff" stroke-width="1.4" filter="url(#glow)"/>
    <path d="M0-33V14M-16 5-6 1M16 5 6 1" fill="none" stroke="#fff" opacity=".48"/>
  </g>

  <!-- Aegis -->
  <g transform="translate(180 58)" stroke-linejoin="round">
    <g filter="url(#glow)" fill="#5af0bc"><path d="M-23 27-18 49-12 28z"/><path d="M0 29-5 50 5 50z"/><path d="M23 27 18 49 12 28z"/></g>
    <path d="M0-39 15-25 34-18 43 1 35 27 17 24 8 34H-8L-17 24-35 27-43 1-34-18-15-25z" fill="url(#mint)" stroke="#dcfff7" stroke-width="2"/>
    <path d="M-40-5-28-22-15-19-18 18-35 20zM40-5 28-22 15-19 18 18 35 20z" fill="#324d57" stroke="#67e3c4"/>
    <rect x="-31" y="-28" width="11" height="29" rx="5" fill="#1c2934" stroke="#75edcf"/><rect x="20" y="-28" width="11" height="29" rx="5" fill="#1c2934" stroke="#75edcf"/>
    <rect x="-7" y="-17" width="14" height="23" rx="6" fill="#46e5b8" stroke="#fff" stroke-width="1.5" filter="url(#glow)"/>
    <path d="M-11 11H11M-28 5h8M28 5h-8" stroke="#dffff7" opacity=".55"/>
  </g>

  <!-- Volt -->
  <g transform="translate(300 58)" stroke-linejoin="round">
    <g filter="url(#glow)" fill="#45dfff"><path d="M-17 29-12 50-7 29z"/><path d="M17 29 12 50 7 29z"/></g>
    <path d="M0-46 10-22 18-15 39 6 24 8 15 29 0 20-15 29-24 8-39 6-18-15-10-22z" fill="url(#blue)" stroke="#9be8ff" stroke-width="1.7"/>
    <path d="M-38 5-29-18-20-10-21 14zM38 5 29-18 20-10 21 14z" fill="#254fae" stroke="#68d8ff"/>
    <path d="M-29-17-25-31-19-22-21-2zM29-17 25-31 19-22 21-2z" fill="#e8b82f" stroke="#fff09c"/>
    <ellipse cy="-9" rx="6" ry="13" fill="#ffe55c" stroke="#fff" stroke-width="1.4" filter="url(#glow)"/>
    <path d="M-31-3q7-8 12 0M31-3q-7-8-12 0" fill="none" stroke="#6fe8ff" stroke-width="2" filter="url(#glow)"/>
  </g>

  <!-- Wraith -->
  <g transform="translate(420 58)" stroke-linejoin="round">
    <g filter="url(#glow)" fill="#a45dff"><path d="M-14 30-9 50-5 30z"/><path d="M14 30 9 50 5 30z"/></g>
    <path d="M0-46 10-24 23-18 42 10 22 5 14 31 0 18-14 31-22 5-42 10-23-18-10-24z" fill="url(#violet)" stroke="#d9c2ff" stroke-width="1.7"/>
    <path d="M-41 9-28-22-18-4-23 16zM41 9 28-22 18-4 23 16z" fill="#241b3c" stroke="#a76cff"/>
    <path d="M0-30 7-11 0 7-7-11z" fill="#d14fff" stroke="#fff" filter="url(#glow)"/>
    <path d="M-28 5-14-1M28 5 14-1M0-39V15" stroke="#f3eaff" opacity=".35"/>
  </g>

  <!-- Fortune -->
  <g transform="translate(60 178)" stroke-linejoin="round">
    <g filter="url(#glow)" fill="#ffd84c"><path d="M-15 28-10 48-5 29z"/><path d="M15 28 10 48 5 29z"/></g>
    <path d="M0-44 10-25 20-18 34-26 30-4 42 15 20 12 13 31 0 21-13 31-20 12-42 15-30-4-34-26-20-18-10-25z" fill="url(#gold)" stroke="#fff1a4" stroke-width="1.8"/>
    <path d="M-36-18-28-31-21-20-24-2zM36-18 28-31 21-20 24-2z" fill="#c68729" stroke="#ffe989"/>
    <ellipse cy="-10" rx="7" ry="13" fill="#ffd648" stroke="#fff" filter="url(#glow)"/>
    <circle cx="-29" cy="2" r="4" fill="#fff0a2"/><circle cx="29" cy="2" r="4" fill="#fff0a2"/>
    <path d="M0-34V15M-15 4-6 0M15 4 6 0" stroke="#fff" opacity=".46"/>
  </g>

  <!-- Arsenal -->
  <g transform="translate(180 178)" stroke-linejoin="round">
    <g filter="url(#glow)" fill="#ff6d43"><path d="M-21 27-16 50-10 28z"/><path d="M0 29-4 51 4 51z"/><path d="M21 27 16 50 10 28z"/></g>
    <path d="M0-46 11-22 20-16 43 5 25 8 18 31 0 19-18 31-25 8-43 5-20-16-11-22z" fill="url(#red)" stroke="#ffd2bd" stroke-width="1.8"/>
    <path d="M-43 4-32-22-22-11-28 18zM43 4 32-22 22-11 28 18z" fill="#501d2c" stroke="#ff7959"/>
    <rect x="-31" y="-25" width="7" height="27" rx="3" fill="#24252b" stroke="#ff9d69"/><rect x="24" y="-25" width="7" height="27" rx="3" fill="#24252b" stroke="#ff9d69"/>
    <path d="M0-31 7-10 0 7-7-10z" fill="#ff5d39" stroke="#fff" filter="url(#glow)"/>
    <path d="M-20 9-8 3M20 9 8 3" stroke="#ffd1bc" opacity=".5"/>
  </g>

  <!-- Oracle -->
  <g transform="translate(300 178)" stroke-linejoin="round">
    <g filter="url(#glow)" fill="#ee73e2"><path d="M0 29-5 52 5 52z"/></g>
    <ellipse cy="-9" rx="34" ry="37" fill="none" stroke="#e59cff" opacity=".28" filter="url(#glow)"/>
    <path d="M0-45 9-24 19-17 34 2 22 7 15 31 0 19-15 31-22 7-34 2-19-17-9-24z" fill="url(#pink)" stroke="#ffe7ff" stroke-width="1.7"/>
    <path d="M-34 1-28-22-18-8-21 17zM34 1 28-22 18-8 21 17z" fill="#7c3d83" stroke="#f18ae8"/>
    <path d="M0-31 7-10 0 8-7-10z" fill="#ff65e7" stroke="#fff" filter="url(#glow)"/>
    <path d="M0-49V-35M-7-42H7" stroke="#ffd98f" stroke-width="2"/>
    <circle cx="-30" cy="-7" r="3" fill="#ff9ef0"/><circle cx="30" cy="-7" r="3" fill="#ff9ef0"/>
  </g>

  <!-- Bastion -->
  <g transform="translate(420 178)" stroke-linejoin="round">
    <g filter="url(#glow)" fill="#4ee9a6"><path d="M-20 29-15 49-10 29z"/><path d="M0 31-4 51 4 51z"/><path d="M20 29 15 49 10 29z"/></g>
    <path d="M0-40 15-27 34-22 43-2 37 24 20 21 12 33 0 26-12 33-20 21-37 24-43-2-34-22-15-27z" fill="url(#green)" stroke="#d9fff1" stroke-width="1.9"/>
    <path d="M-42-2Q-33-27-17-23L-22 18Q-35 25-42-2ZM42-2Q33-27 17-23L22 18Q35 25 42-2Z" fill="#30464b" stroke="#61e5ad"/>
    <circle cy="-4" r="10" fill="#2ddd88" stroke="#b9ffe7" filter="url(#glow)"/>
    <path d="M-5-4H5M0-9V1" stroke="#fff" stroke-width="2"/>
    <path d="M-29 3-18 0M29 3 18 0" stroke="#d9fff2" opacity=".48"/>
  </g>

  <!-- Reaper -->
  <g transform="translate(60 298)" stroke-linejoin="round">
    <g filter="url(#glow)" fill="#ff4e79"><path d="M-13 29-8 52-3 30z"/><path d="M13 29 8 52 3 30z"/></g>
    <path d="M0-46 9-25 19-19 30-31 27-7 44 18 23 8 14 32 0 18-14 32-23 8-44 18-27-7-30-31-19-19-9-25z" fill="url(#crimson)" stroke="#ffb0c4" stroke-width="1.7"/>
    <path d="M-43 16Q-48-10-30-34L-23-8-29 15zM43 16Q48-10 30-34L23-8 29 15z" fill="#2b1732" stroke="#ff527b"/>
    <path d="M0-31 7-11 0 7-7-11z" fill="#ff3674" stroke="#fff" filter="url(#glow)"/>
    <circle cx="-33" cy="1" r="4" fill="#6f1f58" stroke="#ff7196"/><circle cx="33" cy="1" r="4" fill="#6f1f58" stroke="#ff7196"/>
  </g>

  <!-- Celestial -->
  <g transform="translate(180 298)" stroke-linejoin="round">
    <g filter="url(#glow)" fill="#8faaff"><path d="M0 29-5 53 5 53z"/></g>
    <ellipse cy="-8" rx="35" ry="39" fill="none" stroke="#ffd96c" opacity=".32" filter="url(#glow)"/>
    <path d="M0-46 10-25 20-19 36 4 23 10 17 32 0 20-17 32-23 10-36 4-20-19-10-25z" fill="url(#astral)" stroke="#e9f2ff" stroke-width="1.8"/>
    <path d="M-35 4-29-23-19-10-22 18zM35 4 29-23 19-10 22 18z" fill="#3a3f91" stroke="#9dbbff"/>
    <circle cy="-8" r="8" fill="#ffd95c" stroke="#fff6c5" filter="url(#glow)"/>
    <path d="M0-20 3-11 12-8 3-5 0 4-3-5-12-8-3-11z" fill="#fff1a4"/>
    <path d="M0-49V-36M-7-42H7" stroke="#ffd96e" stroke-width="2"/>
  </g>

  <!-- Zenith -->
  <g transform="translate(300 298)" stroke-linejoin="round">
    <g filter="url(#glow)" fill="#71eaff"><path d="M-21 28-16 52-10 29z"/><path d="M0 31-5 55 5 55z"/><path d="M21 28 16 52 10 29z"/></g>
    <ellipse cy="-11" rx="37" ry="40" fill="none" stroke="#78eaff" opacity=".35" filter="url(#glow)"/>
    <path d="M0-49 11-26 18-19 38-8 47 14 26 9 17 34 0 22-17 34-26 9-47 14-38-8-18-19-11-26z" fill="url(#zenith)" stroke="#ffffff" stroke-width="2"/>
    <path d="M-45 13-36-22-23-12-29 23zM45 13 36-22 23-12 29 23z" fill="#4b4ca1" stroke="#8edfff"/>
    <path d="M-31-11-26-29-18-17-21 6zM31-11 26-29 18-17 21 6z" fill="#dbe8ff" stroke="#a596ff"/>
    <path d="M0-34 7-11 0 9-7-11z" fill="#48e6ff" stroke="#fff" filter="url(#glow)"/>
    <path d="M0-47V18M-17 6-6 1M17 6 6 1" stroke="#fff" opacity=".5"/>
  </g>

  <!-- reserved transparent final cell -->
</svg>
