<svg xmlns="http://www.w3.org/2000/svg" viewBox="0 0 768 768" width="768" height="768">
<defs>
 <radialGradient id="hot"><stop offset="0" stop-color="#fff"/><stop offset=".12" stop-color="#fff7b1"/><stop offset=".35" stop-color="#ffb33b"/><stop offset=".62" stop-color="#ff4b20"/><stop offset="1" stop-color="#7b102d" stop-opacity="0"/></radialGradient>
 <radialGradient id="blue"><stop offset="0" stop-color="#fff"/><stop offset=".18" stop-color="#bdf8ff"/><stop offset=".5" stop-color="#54d7ff"/><stop offset="1" stop-color="#3155ff" stop-opacity="0"/></radialGradient>
 <radialGradient id="smoke"><stop offset="0" stop-color="#49535a" stop-opacity=".9"/><stop offset=".48" stop-color="#242b31" stop-opacity=".78"/><stop offset="1" stop-color="#070b0e" stop-opacity="0"/></radialGradient>
 <linearGradient id="fire" x1="0" y1="1" x2="0" y2="0"><stop offset="0" stop-color="#ff2a19" stop-opacity=".2"/><stop offset=".38" stop-color="#ff5d24"/><stop offset=".68" stop-color="#ffd159"/><stop offset="1" stop-color="#fffbd6" stop-opacity=".9"/></linearGradient>
 <filter id="g" x="-70%" y="-70%" width="240%" height="240%"><feGaussianBlur stdDeviation="12" result="b"/><feMerge><feMergeNode in="b"/><feMergeNode in="SourceGraphic"/></feMerge></filter>
 <filter id="b" x="-70%" y="-70%" width="240%" height="240%"><feGaussianBlur stdDeviation="24"/></filter>
<linearGradient id="metal" x1="0" y1="0" x2="1" y2="1"><stop offset="0" stop-color="#b8c4ca"/><stop offset=".45" stop-color="#59666e"/><stop offset="1" stop-color="#172027"/></linearGradient></defs><g>
<g fill="url(#metal)" stroke="#64717b" stroke-width="3" opacity=".94">
<path d="M348 344 214 178 326 248Z"/><path d="m424 330 152-96-102 138Z"/><path d="m442 430 126 142-168-74Z"/><path d="M332 438 196 568l72-168Z"/>
<path d="m378 270 40-124 34 138Z"/><path d="m292 368-152-20 140-42Z"/>
</g>
<g fill="#ff8b38" opacity=".66" filter="url(#g)"><circle cx="350" cy="350" r="22"/><circle cx="446" cy="396" r="18"/></g>
</g></svg>