<svg xmlns="http://www.w3.org/2000/svg" viewBox="0 0 768 768" width="768" height="768">
<defs>
 <radialGradient id="hot"><stop offset="0" stop-color="#fff"/><stop offset=".12" stop-color="#fff7b1"/><stop offset=".35" stop-color="#ffb33b"/><stop offset=".62" stop-color="#ff4b20"/><stop offset="1" stop-color="#7b102d" stop-opacity="0"/></radialGradient>
 <radialGradient id="blue"><stop offset="0" stop-color="#fff"/><stop offset=".18" stop-color="#bdf8ff"/><stop offset=".5" stop-color="#54d7ff"/><stop offset="1" stop-color="#3155ff" stop-opacity="0"/></radialGradient>
 <radialGradient id="smoke"><stop offset="0" stop-color="#49535a" stop-opacity=".9"/><stop offset=".48" stop-color="#242b31" stop-opacity=".78"/><stop offset="1" stop-color="#070b0e" stop-opacity="0"/></radialGradient>
 <linearGradient id="fire" x1="0" y1="1" x2="0" y2="0"><stop offset="0" stop-color="#ff2a19" stop-opacity=".2"/><stop offset=".38" stop-color="#ff5d24"/><stop offset=".68" stop-color="#ffd159"/><stop offset="1" stop-color="#fffbd6" stop-opacity=".9"/></linearGradient>
 <filter id="g" x="-70%" y="-70%" width="240%" height="240%"><feGaussianBlur stdDeviation="12" result="b"/><feMerge><feMergeNode in="b"/><feMergeNode in="SourceGraphic"/></feMerge></filter>
 <filter id="b" x="-70%" y="-70%" width="240%" height="240%"><feGaussianBlur stdDeviation="24"/></filter>
</defs><g>
<circle cx="384" cy="384" r="156" fill="url(#blue)" filter="url(#g)"/>
<path d="M384 86 424 302 558 160 466 330 688 246 486 364 724 384 486 404 688 522 466 438 558 608 424 466 384 682 344 466 210 608 302 438 80 522 282 404 44 384 282 364 80 246 302 330 210 160 344 302Z" fill="#bdf9ff" opacity=".82" filter="url(#g)"/>
<circle cx="384" cy="384" r="72" fill="#fff" opacity=".94"/>
</g></svg>